<?xml version="1.0" standalone="no"?>
<!DOCTYPE svg PUBLIC "-//W3C//DTD SVG 20010904//EN"
 "http://www.w3.org/TR/2001/REC-SVG-20010904/DTD/svg10.dtd">
<svg version="1.0" xmlns="http://www.w3.org/2000/svg"
 width="736.000000pt" height="641.000000pt" viewBox="0 0 736.000000 641.000000"
 preserveAspectRatio="xMidYMid meet">

<g transform="translate(0.000000,641.000000) scale(0.100000,-0.100000)"
fill="#000000" stroke="none">
<path d="M3061 6373 c-43 -86 -120 -334 -226 -733 -26 -96 -62 -231 -80 -300
-18 -69 -68 -263 -111 -432 -88 -355 -64 -323 -215 -283 -134 36 -233 55 -290
55 -27 0 -49 -2 -49 -4 0 -14 36 -170 79 -348 55 -221 93 -399 88 -405 -2 -2
-39 8 -82 22 -96 32 -165 42 -165 26 0 -6 38 -87 84 -179 74 -149 84 -175 90
-240 8 -97 48 -177 149 -298 71 -87 81 -104 104 -182 26 -91 64 -170 94 -198
16 -15 19 -13 38 32 12 26 24 58 27 71 4 13 11 23 18 23 8 0 243 -55 362 -86
6 -1 26 -38 44 -81 42 -101 80 -163 102 -163 11 0 39 31 70 77 29 42 62 87 73
100 l20 24 283 -7 c200 -5 282 -11 282 -19 0 -19 100 -164 121 -176 16 -8 25
-7 40 7 22 20 83 142 93 185 5 24 16 29 153 64 82 20 192 53 247 72 54 19 100
33 102 31 6 -7 -37 -161 -66 -234 -48 -120 -144 -305 -193 -370 -69 -91 -196
-215 -261 -253 -107 -64 -184 -83 -346 -89 -109 -3 -167 0 -232 12 -308 58
-598 236 -740 453 -46 71 -56 115 -57 242 -1 73 -1 74 -21 56 -32 -29 -55
-104 -54 -175 1 -191 225 -450 567 -653 94 -57 274 -146 346 -172 20 -7 52
-20 71 -28 35 -15 37 -15 90 20 52 33 58 34 110 27 30 -5 98 -8 150 -8 l95 0
180 86 c277 134 356 145 503 73 88 -44 206 -151 244 -222 14 -26 40 -100 57
-163 41 -157 133 -381 169 -414 44 -39 436 -215 635 -285 141 -49 337 -103
337 -92 0 4 -57 75 -127 158 -252 297 -403 544 -403 659 l0 38 38 -45 c20 -24
48 -56 62 -71 29 -29 131 -101 137 -95 2 2 -20 55 -48 118 -131 290 -199 508
-199 640 l0 76 83 56 c45 31 118 83 162 115 112 81 404 253 500 293 l79 33
-34 8 c-50 10 -273 44 -422 65 -71 9 -128 20 -128 23 0 27 139 117 644 414
590 348 732 438 722 455 -3 4 -144 11 -313 14 -342 7 -583 20 -808 43 -195 19
-357 44 -353 55 2 4 125 99 273 210 716 536 1227 966 1286 1081 l19 38 -26 6
c-43 11 -562 -3 -769 -21 -393 -33 -868 -97 -1190 -160 -251 -50 -407 -41
-640 35 -157 52 -227 69 -385 94 -147 23 -395 39 -502 32 l-98 -6 -23 37 c-68
109 -402 717 -547 996 -50 97 -93 177 -96 177 -2 0 -12 -17 -23 -37z m-596
-2241 c4 -26 16 -98 27 -161 12 -70 18 -136 14 -170 -3 -31 -8 -86 -12 -123
-7 -76 2 -86 30 -33 11 20 23 32 27 28 6 -7 44 -145 73 -267 7 -28 6 -29 -25
-22 -83 16 -209 119 -257 210 -25 47 -27 61 -27 166 0 93 5 130 23 190 30 95
100 242 112 235 5 -3 12 -27 15 -53z m2015 -254 c-1 -129 -42 -375 -87 -517
-31 -100 -94 -197 -143 -223 -40 -21 -176 -24 -325 -8 -186 21 -642 104 -659
120 -10 10 121 103 217 155 l67 36 0 -68 c0 -45 5 -76 14 -89 15 -19 15 -18
40 6 24 24 44 85 61 183 7 45 23 56 270 192 206 114 500 253 538 255 4 0 7
-19 7 -42z"/>
<path d="M746 3595 c-25 -9 -72 -46 -130 -103 -50 -49 -145 -135 -211 -192
-160 -137 -160 -137 -160 -375 0 -165 2 -184 23 -235 25 -60 162 -283 169
-276 2 2 18 51 34 108 17 56 45 139 63 183 l32 80 149 92 c82 51 150 91 152
89 2 -2 -8 -29 -23 -60 -104 -229 -4 -516 219 -626 72 -35 86 -33 87 14 0 37
32 143 62 203 42 85 125 183 211 247 97 73 142 94 250 117 145 32 202 76 242
189 25 70 24 195 -1 251 -51 110 -137 169 -245 169 -127 0 -428 50 -671 111
-128 32 -192 35 -252 14z"/>
<path d="M113 2851 c-90 -71 -122 -123 -109 -176 12 -46 310 -390 328 -379 7
5 9 39 5 96 -5 82 -10 96 -45 156 -41 69 -75 163 -86 242 -18 118 -20 119 -93
61z"/>
<path d="M4483 1996 c-24 -8 -116 -50 -205 -94 -234 -116 -278 -126 -409 -96
-39 9 -82 13 -96 9 -14 -3 -69 -47 -122 -98 -120 -115 -234 -215 -286 -252
-108 -77 -140 -126 -161 -244 -24 -135 -13 -361 27 -551 l12 -55 52 112 c106
224 206 343 348 413 76 38 89 41 169 43 48 0 90 -2 93 -5 4 -3 -9 -28 -28 -55
-141 -197 -172 -459 -87 -715 27 -81 99 -236 123 -266 8 -10 24 24 62 135 91
258 152 384 255 522 166 224 330 265 413 102 32 -64 37 -152 11 -222 -74 -208
-71 -488 7 -640 l22 -43 24 29 c39 49 226 333 288 438 126 217 225 466 225
570 0 47 -8 70 -51 154 -82 159 -133 295 -194 515 -26 97 -145 221 -265 277
-65 30 -164 38 -227 17z"/>
</g>
</svg>
